<svg width="200" height="200" version="1.1" viewBox="0 0 52.917 52.917" xmlns="http://www.w3.org/2000/svg">
 <g transform="translate(0 -244.08)" fill="none" stroke="#fff" stroke-linejoin="round">
  <rect x="35.719" y="270.54" width="14.552" height="0" ry="0" stroke-width="4.2333" style="paint-order:normal"/>
  <path d="m43.656 284.91v1.3685c0 2.2745-1.7701 4.1056-3.9688 4.1056h-30.427c-2.1987 0-3.9688-1.8311-3.9688-4.1056v-31.476c0-2.2745 1.7701-4.1056 3.9688-4.1056h30.427c2.1987 0 3.9688 1.8311 3.9688 4.1056v10.948" stroke-width="3.9789" style="paint-order:stroke fill markers"/>
 </g>
 <g fill="none" stroke="#fff" stroke-linejoin="round">
  <rect x="37.306" y="26.458" width="12.7" height="5.9301e-6" ry="2.965e-6" stroke-width="3.2017" style="paint-order:normal"/>
  <rect x="37.306" y="31.75" width="8.7313" height="6.8492e-6" ry="3.4246e-6" stroke-width="2.9799" style="paint-order:normal"/>
  <rect x="37.306" y="37.042" width="10.848" height="6.35e-6" ry="3.175e-6" stroke-width="3.062" style="paint-order:normal"/>
 </g>
 <g fill="#fff">
  <path d="m29.104 26.478a3.9628 3.8367 0 0 1-3.9577 3.8367 3.9628 3.8367 0 0 1-3.9679-3.8268 3.9628 3.8367 0 0 1 3.9474-3.8466 3.9628 3.8367 0 0 1 3.9781 3.8169" style="paint-order:stroke fill markers"/>
  <path d="m18.521 26.478a3.9628 3.8367 0 0 1-3.9577 3.8367 3.9628 3.8367 0 0 1-3.9679-3.8268 3.9628 3.8367 0 0 1 3.9474-3.8466 3.9628 3.8367 0 0 1 3.9781 3.8169" style="paint-order:stroke fill markers"/>
 </g>
</svg>
